# xmcd CD database file
#
# Track frame offsets:
#	182
#	21095
#	41157
#	58542
#	75232
#	99182
#	115785
#	128307
#	146357
#	162345
#
# Disc length: 2368 seconds
#
# Revision: 4
# Processed by: cddbd v1.5PL3 Copyright (c) Steve Scherf et al.
# Submitted via: CDex 1.51
#
DISCID=6c093e0a
DTITLE=Paul Brandt - That's the Truth
DYEAR=1999
DGENRE=Country
TTITLE0=That's the Truth
TTITLE1=It's a Beautiful Thing
TTITLE2=That Hurts
TTITLE3=There's a World Out There
TTITLE4=The Sycamore Tree
TTITLE5=A Love That Strong
TTITLE6=Add 'Em All Up
TTITLE7=Scrap Piece of Paper
TTITLE8=Really and Truly
TTITLE9=Let's Live it Up
EXTD=YEAR: 1999
EXTT0=
EXTT1=
EXTT2=
EXTT3=
EXTT4=
EXTT5=
EXTT6=
EXTT7=
EXTT8=
EXTT9=
PLAYORDER=
